HIERARCHY
ROOT Hips
{
  OFFSET 13.6774 106.653 -34.4427
  CHANNELS 6 Xposition Yposition Zposition Zrotation Xrotation Yrotation
  JOINT ToSpine
  {
    OFFSET -2.69724 7.43032 -0.144315
    CHANNELS 3 Zrotation Xrotation Yrotation
    JOINT Spine
    {
      OFFSET -0.0310711 10.7595 1.96963
      CHANNELS 3 Zrotation Xrotation Yrotation
      JOINT Spine1
      {
        OFFSET 19.9056 3.91189 0.764692
        CHANNELS 3 Zrotation Xrotation Yrotation
        JOINT Neck
        {
          OFFSET 25.9749 7.03908 -0.130764
          CHANNELS 3 Zrotation Xrotation Yrotation
          JOINT Head
          {
            OFFSET 9.52751 0.295786 -0.907742
            CHANNELS 3 Zrotation Xrotation Yrotation
            End Site
            {
              OFFSET 16.4037 0.713936 2.7358
            }
          }
        }
        JOINT LeftShoulder
        {
          OFFSET 17.7449 4.33886 11.7777
          CHANNELS 3 Zrotation Xrotation Yrotation
          JOINT LeftArm
          {
            OFFSET 0.911315 1.27913 9.80584
            CHANNELS 3 Zrotation Xrotation Yrotation
            JOINT LeftForeArm
            {
              OFFSET 28.6126 1.18197 -3.53199
              CHANNELS 3 Zrotation Xrotation Yrotation
              JOINT LeftHand
              {
                OFFSET 27.5088 0.0218783 0.327423
                CHANNELS 3 Zrotation Xrotation Yrotation
                End Site
                {
                  OFFSET 18.6038 -0.000155887 0.382096
                }
              }
            }
          }
        }
        JOINT RightShoulder
        {
          OFFSET 17.1009 2.89543 -12.2328
          CHANNELS 3 Zrotation Xrotation Yrotation
          JOINT RightArm
          {
            OFFSET 1.4228 0.178766 -10.211
            CHANNELS 3 Zrotation Xrotation Yrotation
            JOINT RightForeArm
            {
              OFFSET 28.733 1.87905 2.64907
              CHANNELS 3 Zrotation Xrotation Yrotation
              JOINT RightHand
              {
                OFFSET 27.4588 0.290562 -0.101845
                CHANNELS 3 Zrotation Xrotation Yrotation
                End Site
                {
                  OFFSET 17.8396 -0.255518 -0.000602873
                }
              }
            }
          }
        }
      }
    }
  }
  JOINT LeftUpLeg
  {
    OFFSET -5.61296 -2.22332 -10.2353
    CHANNELS 3 Zrotation Xrotation Yrotation
    JOINT LeftLeg
    {
      OFFSET 2.56703 -44.7417 -7.93097
      CHANNELS 3 Zrotation Xrotation Yrotation
      JOINT LeftFoot
      {
        OFFSET 3.16933 -46.5642 -3.96578
        CHANNELS 3 Zrotation Xrotation Yrotation
        JOINT LeftToeBase
        {
          OFFSET 0.346054 -6.02161 12.8035
          CHANNELS 3 Zrotation Xrotation Yrotation
          End Site
          {
            OFFSET 0.134235 -1.35082 5.13018
          }
        }
      }
    }
  }
  JOINT RightUpLeg
  {
    OFFSET -5.7928 -1.72406 10.6446
    CHANNELS 3 Zrotation Xrotation Yrotation
    JOINT RightLeg
    {
      OFFSET -2.57161 -44.7178 -7.85259
      CHANNELS 3 Zrotation Xrotation Yrotation
      JOINT RightFoot
      {
        OFFSET -3.10148 -46.5936 -4.03391
        CHANNELS 3 Zrotation Xrotation Yrotation
        JOINT RightToeBase
        {
          OFFSET -0.0828122 -6.13587 12.8035
          CHANNELS 3 Zrotation Xrotation Yrotation
          End Site
          {
            OFFSET -0.131328 -1.35082 5.13018
          }
        }
      }
    }
  }
}
MOTION
Frames: 8
Frame Time: 0.03333333333333333
0.0000 93.1000 0.0000 -47.0776 -28.1904 -170.9277 -71.2149 0.2322 88.2765 109.2865 68.0875 -25.8158 -4.3320 17.6064 5.1084 -161.3699 31.8732 -176.3101 -152.5885 71.3401 -169.7307 -0.2273 -15.5189 -32.3947 -78.0759 46.5696 -70.7862 23.2262 5.9075 -75.8469 0.1676 -0.0282 0.5973 -2.4318 4.5327 48.5270 -63.3664 -32.5557 66.5000 9.2586 -13.4807 37.3903 -0.2876 0.9552 0.4583 -54.8027 5.2265 88.7306 -6.2199 58.0579 -4.7677 -7.8787 4.0596 0.5954 0.0790 -6.0195 8.3565 -5.9631 -6.8951 78.3024 5.8661 70.7222 -12.8670 -5.3028 -19.6244 0.9606 1.4739 -9.2466 -13.9408 
0.0000 93.1000 0.0000 -49.1845 -22.6629 -174.5339 -71.2656 0.1811 88.3280 121.5295 67.3484 -36.5210 -5.3953 19.4140 4.1094 -165.5827 30.1361 -179.4742 -148.5243 69.7044 -171.9036 -0.2990 -15.3240 -32.7274 -74.5326 48.9104 -71.6745 15.4407 7.2793 -64.2565 0.1448 0.4574 0.6826 -2.5213 4.8660 49.5301 -67.0950 -27.6249 73.0973 11.6955 -14.9845 40.6607 -0.3322 0.9563 0.6906 -46.3835 4.0253 89.8050 -16.5020 74.4722 3.3101 -8.1766 4.5192 0.8090 1.4386 -8.0732 9.0927 -11.1461 -1.4061 80.3817 6.9848 69.9065 -9.7190 -8.4944 -18.8307 0.9220 2.8263 -19.3314 -22.3847 
0.0000 93.1000 0.0000 -49.7844 -18.1139 -177.7225 -71.0510 0.1336 88.0034 129.5677 66.7744 -43.8172 -5.2438 22.0035 2.1929 -169.7727 28.9996 -179.0185 -149.0695 68.3789 -173.6407 -0.8068 -15.2100 -33.6610 -70.0709 51.5989 -70.8018 7.3792 6.4286 -53.4211 0.1700 0.1178 0.9035 -2.4603 5.3484 48.9565 -71.6470 -26.3050 80.7436 15.0320 -15.0869 48.4485 -0.2348 1.5102 1.1199 -33.7477 5.7875 92.7065 -122.0888 83.4594 110.8178 -6.6539 3.8010 0.5508 0.0853 -7.4030 11.3396 -17.6673 3.5180 82.4027 7.1687 66.8677 -4.9163 -10.3302 -23.8403 1.1272 4.4110 -19.7513 -30.0679 
0.0000 93.1000 0.0000 -48.2301 -13.2446 -177.4453 -71.0223 -1.3308 88.0535 132.4866 68.5145 -46.1297 -6.4479 23.1368 2.3777 -171.4982 28.9038 -178.0224 -147.9892 67.6834 -174.9184 -0.5883 -15.0554 -32.7538 -59.4664 57.1579 -73.7855 5.5369 3.7352 -48.7600 -0.5424 -0.3957 -0.4488 -3.9878 5.4581 44.8306 -77.5483 -30.1687 85.9775 25.1985 -12.3071 64.6199 0.4726 -0.7423 -0.9965 -17.8128 7.2260 93.0203 -161.5425 74.0458 152.1624 -4.1142 4.7822 0.9335 1.3190 -5.7221 7.9439 -25.2508 4.6553 83.3757 4.7490 61.5450 -2.5654 -4.2371 -32.3755 1.5466 0.8792 -6.7514 -22.1028 
0.0000 93.1000 0.0000 -46.8617 -10.6100 176.4566 -70.7090 -0.0394 88.6180 130.4945 70.3228 -47.3528 -6.1847 25.6757 1.8137 -170.1031 28.7633 180.2921 -143.0712 67.6412 -178.5412 0.3848 -14.7926 -30.3334 -49.3851 61.6938 -72.6901 6.0769 3.5366 -52.0456 -0.5120 0.1123 -0.1427 -2.0567 5.4938 40.6158 -77.4083 -35.8209 93.2154 32.0345 -6.2297 79.5303 0.0177 -0.5170 -0.0029 -3.1302 7.2554 96.6768 -163.7137 72.8430 156.8787 -2.5198 3.6511 -0.0102 0.5984 -4.3273 6.2406 -32.0785 3.2496 87.4919 4.0334 56.8398 0.7939 -4.8161 -32.9942 2.2100 1.6792 -10.5694 -17.9845 
0.0000 93.1000 0.0000 -48.1222 -7.9023 173.8989 -70.8149 -0.2592 88.4353 131.4712 73.1068 -50.7139 -7.1388 27.7725 2.0077 -169.3411 29.5059 178.4929 -144.3025 67.7152 -177.5193 0.7223 -14.3253 -28.6311 -42.4966 66.7637 -72.5213 6.0527 3.8306 -57.0437 0.0501 0.0059 -0.4774 -1.9179 5.8815 36.9629 -76.6850 -39.4946 98.0393 36.5488 0.6273 90.2077 0.7346 -1.0370 -0.5714 3.6110 6.7281 96.7547 -152.0421 79.9503 145.5028 -3.1485 3.7101 -0.0008 1.2137 -6.0320 9.2075 -44.0869 0.9021 90.3613 3.1824 46.9751 4.0021 -5.5467 -20.9389 1.5015 2.1342 -23.9911 -10.3818 
0.0000 93.1000 0.0000 -50.0567 -5.9734 173.4927 -71.4219 -0.4147 88.6581 134.5039 74.6797 -53.8019 -8.2558 28.9311 1.5990 -166.2348 30.0789 177.2406 -145.5326 68.4132 -179.0106 0.0668 -14.3317 -26.0219 -32.4318 70.6246 -76.4147 5.9872 3.1077 -61.2224 0.1706 -0.2754 0.0636 -2.3248 6.4483 35.8996 -75.1014 -40.8521 98.9901 38.1117 5.6272 97.5601 0.3443 0.1865 0.1452 6.5420 4.6581 95.9408 -39.6329 82.8348 29.5274 -5.3246 6.4708 1.0577 1.0622 -8.5423 9.1974 -55.0426 0.0464 90.8803 2.3226 38.0451 2.8954 -2.9744 -0.8697 -0.5210 3.9450 -33.8210 4.2904 
0.0000 93.1000 0.0000 -49.8359 -5.8525 173.8669 -71.2162 -0.3220 88.5218 126.4583 76.8851 -44.6025 -5.6947 30.0717 0.0167 -166.2746 29.4841 176.7574 -147.8424 68.3674 -177.9029 -0.3697 -15.3417 -25.5049 -29.4304 72.8600 -78.2638 5.3877 2.1625 -64.0526 0.1124 -0.2517 -0.2370 -1.9903 6.7617 33.6853 -74.7076 -41.3296 98.2787 36.4489 8.5134 100.3653 0.2908 0.1210 0.2462 5.3872 3.1605 95.9419 -8.1676 64.9349 -4.5125 -8.3151 8.1205 1.9086 1.3798 -6.9303 10.0278 -62.2008 -2.1310 85.8123 -0.8977 31.9759 15.1341 4.4920 16.2243 -2.5146 1.5143 -19.8470 3.1548 
